<?xml version="1.0" encoding="UTF-8"?>
<svg id="Camada_1" xmlns="http://www.w3.org/2000/svg" viewBox="0 0 1080 1080">
  <defs>
    <style>
      .cls-1 {
        fill: #fec701;
      }
    </style>
  </defs>
  <path class="cls-1" d="M924.67,620.61c40.04-100.84,22.82-172.01-.83-215.37-20.75-37.97-53.32-69.09-96.69-92.33-37.55-20.13-81.75-33.61-131.55-39.84-5.8-7.68-10.17-17.43-11.62-27.39-3.52-23.65,5.61-46.48,13.7-61.42,8.3-15.15,19.71-29.88,31.54-45.23,5.19-6.44,10.37-13.28,15.56-20.33l34.86-47.52-58.93,2.07c-74.28,2.91-146.28,30.71-202.92,78.64-47.93,40.46-84.03,95.24-102.91,155.83-33.41,11.83-65.98,26.14-97.11,42.95-108.93,58.51-172.22,123.87-218.28,171.39-22.62,23.24-40.25,41.5-56.44,52.08-22,14.32-28.22,44.2-13.7,66.61,15.36,23.86,33.83,43.16,54.99,57.47,25.52,17.22,56.02,28.01,86.73,30.5,40.25,32.37,92.75,50.84,145.66,50.84,9.96,0,19.71-.62,29.46-1.87,22.41,31.95,58.51,53.53,96.9,56.64l50,3.94-22-45.02c-7.88-16.19-7.05-37.14,1.87-53.12,9.75-3.94,19.09-8.09,28.22-12.45l-.21.83c33.2,10.17,61.83,32.79,76.15,60.59,3.73,7.05,24.07,52.7,3.52,93.16-14.52,28.21-39.21,52.91-69.71,61.83l-87.98,25.93,87.15,28.63c20.54,6.85,42.12,10.17,64.32,10.17,50.42,0,99.8-17.63,138.81-49.8,51.87-42.32,83.41-108.52,84.24-175.33,2.69-2.49,5.6-5.19,8.51-7.89,10.37-9.55,20.96-19.5,31.33-29.88,63.08-6.84,122.83-40.67,161.63-91.92l59.55-78.85-92.33,35.07c-13.7,5.19-27.59,8.71-41.5,10.37Z"/>
</svg>